<svg width="680" viewBox="0 0 680 750" xmlns="http://www.w3.org/2000/svg" role="img">
  <title>weatherwatch program flowchart</title>
  <desc>
    Full program flowchart: startup flag handling, daemon loop, alert filtering, VTEC deduplication, Pushover notification
  </desc>
  <defs>
    <marker id="arrow" viewBox="0 0 10 10" refX="8" refY="5" markerWidth="6" markerHeight="6" orient="auto-start-reverse">
      <path d="M2 1L8 5L2 9" fill="none" stroke="#888" stroke-width="1.5" stroke-linecap="round" stroke-linejoin="round"/>
    </marker>
    <style>
      text { font-family: system-ui, sans-serif; }
    .th { font-size: 13px; font-weight: 600; fill: #1a1a1a; }
    .ts { font-size: 11px; font-weight: 400; fill: #555; }
    .lbl { stroke: white; stroke-width: 3px; paint-order: stroke fill; fill: #333; }
    .arr { stroke: #888; stroke-width: 1.5; fill: none; }
    .amber rect { fill: #FFF3CD; stroke: #D4A017; }
    .teal rect  { fill: #D6EEF0; stroke: #1D9E75; }
    .gray rect  { fill: #F1EFE8; stroke: #888; }
    .coral rect { fill: #FAECE7; stroke: #D85A30; }
    </style>
  </defs>
<!--LEFT COLUMN: utility flags-->
  <g class="amber">
    <rect x="20" y="20" width="170" height="52" rx="8" stroke-width="0.5"/>
    <text class="th" x="105" y="43" text-anchor="middle">-zip flag</text>
    <text class="ts" x="105" y="60" text-anchor="middle">Lookup zone, exit</text>
  </g>
  <g class="amber">
    <rect x="20" y="100" width="170" height="52" rx="8" stroke-width="0.5"/>
    <text class="th" x="105" y="123" text-anchor="middle">-listevents flag</text>
    <text class="ts" x="105" y="140" text-anchor="middle">Fetch types, exit</text>
  </g>
  <g class="amber">
    <rect x="20" y="304" width="170" height="52" rx="8" stroke-width="0.5"/>
    <text class="th" x="105" y="327" text-anchor="middle">-print flag</text>
    <text class="ts" x="105" y="344" text-anchor="middle">Print matches, exit</text>
  </g>
<!--MAIN COLUMN-->
  <g class="gray">
    <rect x="250" y="20" width="180" height="44" rx="8" stroke-width="0.5"/>
    <text class="th" x="340" y="47" text-anchor="middle">Program starts</text>
  </g>
  <g class="teal">
    <rect x="250" y="84" width="180" height="56" rx="8" stroke-width="0.5"/>
    <text class="th" x="340" y="107" text-anchor="middle">Load env vars</text>
    <text class="ts" x="340" y="125" text-anchor="middle">Validate config.toml</text>
  </g>
  <g class="gray">
    <rect x="250" y="160" width="180" height="44" rx="8" stroke-width="0.5"/>
    <text class="th" x="340" y="187" text-anchor="middle">Initialize seen map</text>
  </g>
  <text class="ts" x="340" y="212" text-anchor="middle" fill="#999">── daemon loop ──</text>
  <g class="teal">
    <rect x="250" y="228" width="180" height="56" rx="8" stroke-width="0.5"/>
    <text class="th" x="340" y="251" text-anchor="middle">ConnectNOAA</text>
    <text class="ts" x="340" y="269" text-anchor="middle">Fetch active alerts</text>
  </g>
  <g class="teal">
    <rect x="250" y="304" width="180" height="56" rx="8" stroke-width="0.5"/>
    <text class="th" x="340" y="327" text-anchor="middle">FilterAlerts</text>
    <text class="ts" x="340" y="345" text-anchor="middle">Zone, county + event</text>
  </g>
  <g class="amber">
    <rect x="250" y="380" width="180" height="44" rx="8" stroke-width="0.5"/>
    <text class="th" x="340" y="407" text-anchor="middle">Any matches?</text>
  </g>
  <g class="amber">
    <rect x="250" y="444" width="180" height="52" rx="8" stroke-width="0.5"/>
    <text class="th" x="340" y="467" text-anchor="middle">VTEC key in seen?</text>
    <text class="ts" x="340" y="484" text-anchor="middle">Duplicate check</text>
  </g>
  <g class="teal">
    <rect x="250" y="516" width="180" height="56" rx="8" stroke-width="0.5"/>
    <text class="th" x="340" y="539" text-anchor="middle">SendPushover</text>
    <text class="ts" x="340" y="556" text-anchor="middle">Send notification</text>
  </g>
  <g class="gray">
    <rect x="250" y="592" width="180" height="44" rx="8" stroke-width="0.5"/>
    <text class="th" x="340" y="619" text-anchor="middle">Log + mark as seen</text>
  </g>
  <g class="gray">
    <rect x="250" y="656" width="180" height="52" rx="8" stroke-width="0.5"/>
    <text class="th" x="340" y="679" text-anchor="middle">Prune seen alerts</text>
    <text class="ts" x="340" y="696" text-anchor="middle">Sleep 60 seconds</text>
  </g>
<!--RIGHT COLUMN: error and skip-->
  <g class="coral">
    <rect x="450" y="84" width="160" height="44" rx="8" stroke-width="0.5"/>
    <text class="th" x="530" y="111" text-anchor="middle">Log error, exit</text>
  </g>
  <g class="coral">
    <rect x="450" y="228" width="160" height="44" rx="8" stroke-width="0.5"/>
    <text class="th" x="530" y="255" text-anchor="middle">Log error, retry</text>
  </g>
  <g class="gray">
    <rect x="450" y="380" width="160" height="44" rx="8" stroke-width="0.5"/>
    <text class="th" x="530" y="407" text-anchor="middle">No action</text>
  </g>
  <g class="gray">
    <rect x="450" y="444" width="160" height="44" rx="8" stroke-width="0.5"/>
    <text class="th" x="530" y="471" text-anchor="middle">Skip duplicate</text>
  </g>
<!--MAIN VERTICAL ARROWS-->
  <line x1="340" y1="64" x2="340" y2="84" class="arr" marker-end="url(#arrow)"/>
  <line x1="340" y1="140" x2="340" y2="160" class="arr" marker-end="url(#arrow)"/>
  <line x1="340" y1="204" x2="340" y2="228" class="arr" marker-end="url(#arrow)"/>
  <line x1="340" y1="284" x2="340" y2="304" class="arr" marker-end="url(#arrow)"/>
  <line x1="340" y1="360" x2="340" y2="380" class="arr" marker-end="url(#arrow)"/>
  <line x1="340" y1="424" x2="340" y2="444" class="arr" marker-end="url(#arrow)"/>
  <line x1="340" y1="496" x2="340" y2="516" class="arr" marker-end="url(#arrow)"/>
  <line x1="340" y1="572" x2="340" y2="592" class="arr" marker-end="url(#arrow)"/>
  <line x1="340" y1="636" x2="340" y2="656" class="arr" marker-end="url(#arrow)"/>
<!--LEFT BRANCH ARROWS-->
  <line x1="250" y1="46" x2="190" y2="46" class="arr" marker-end="url(#arrow)"/>
  <path d="M250,56 L220,56 L220,126 L190,126" class="arr" marker-end="url(#arrow)"/>
  <line x1="250" y1="330" x2="190" y2="330" class="arr" marker-end="url(#arrow)"/>
<!--RIGHT BRANCH ARROWS-->
  <line x1="430" y1="106" x2="448" y2="106" class="arr" marker-end="url(#arrow)"/>
  <line x1="430" y1="250" x2="448" y2="250" class="arr" marker-end="url(#arrow)"/>
  <line x1="430" y1="402" x2="448" y2="402" class="arr" marker-end="url(#arrow)"/>
  <line x1="430" y1="466" x2="448" y2="466" class="arr" marker-end="url(#arrow)"/>
<!--DAEMON LOOP RETURN-->
  <path d="M340,708 L630,708 L630,215 L340,215 L340,228" class="arr" marker-end="url(#arrow)"/>
<!--BRANCH LABELS with white outline for dark background legibility-->
  <text class="ts lbl" x="218" y="40" text-anchor="middle">if -zip</text>
  <text class="ts lbl" x="185" y="95" text-anchor="middle">if -listevents</text>
  <text class="ts lbl" x="220" y="324" text-anchor="middle">if -print</text>
  <text class="ts lbl" x="428" y="80" text-anchor="start">error</text>
  <text class="ts lbl" x="430" y="229" text-anchor="start">error</text>
  <text class="ts lbl" x="326" y="438" text-anchor="middle">yes</text>
  <text class="ts lbl" x="433" y="397" text-anchor="start">no</text>
  <text class="ts lbl" x="326" y="510" text-anchor="middle">new</text>
  <text class="ts lbl" x="430" y="461" text-anchor="start">seen</text>
  <text class="ts lbl" x="500" y="702" text-anchor="start">⟶ loop back</text>
</svg>
